# xmcd
#
# Track frame offsets: 
#        150
#        10920
#        20113
#        33557
#        44998
#        57833
#        73358
#        86031
#        116146
#        130950
#        151262
#        185608
#
# Disc length: 2659 seconds
#
# Revision: 0
# Processed by: cddbd v1.5.1PL0 Copyright (c) Steve Scherf et al.
# Submitted via: ExactAudioCopy v0.95a5
#
DISCID=b40a610c
DTITLE=Billy C. Farlow - Rockabilly Blues
DYEAR=2000
DGENRE=Blues
TTITLE0=Old Pipeliner
TTITLE1=Back On The Street
TTITLE2=Restless
TTITLE3=Dixie Fried
TTITLE4=Get Rhythm
TTITLE5=River City's Jumpin'
TTITLE6=Don't Play in Your In Your Own Backyard
TTITLE7=Trouble's Come To The Delta
TTITLE8=A Little Meat
TTITLE9=One More Time
TTITLE10=Meet Me At Midnight
TTITLE11=Juke
EXTD=
EXTT0=
EXTT1=
EXTT2=
EXTT3=
EXTT4=
EXTT5=
EXTT6=
EXTT7=
EXTT8=
EXTT9=
EXTT10=
EXTT11=
PLAYORDER=
